<?xml version="1.0" encoding="UTF-8" standalone="no"?>
<!-- Created with Inkscape (http://www.inkscape.org/) -->

<svg
   xmlns:dc="http://purl.org/dc/elements/1.1/"
   xmlns:cc="http://creativecommons.org/ns#"
   xmlns:rdf="http://www.w3.org/1999/02/22-rdf-syntax-ns#"
   xmlns:svg="http://www.w3.org/2000/svg"
   xmlns="http://www.w3.org/2000/svg"
   xmlns:sodipodi="http://sodipodi.sourceforge.net/DTD/sodipodi-0.dtd"
   xmlns:inkscape="http://www.inkscape.org/namespaces/inkscape"
   width="297mm"
   height="53mm"
   viewBox="0 0 297 53"
   version="1.1"
   id="svg3792"
   inkscape:version="0.92.1 r"
   sodipodi:docname="AS Name.svg">
  <defs
     id="defs3786" />
  <sodipodi:namedview
     id="base"
     pagecolor="#ffffff"
     bordercolor="#666666"
     borderopacity="1.0"
     inkscape:pageopacity="0.0"
     inkscape:pageshadow="2"
     inkscape:zoom="0.35"
     inkscape:cx="400"
     inkscape:cy="560"
     inkscape:document-units="mm"
     inkscape:current-layer="layer1"
     showgrid="false"
     height="209mm"
     inkscape:window-width="1900"
     inkscape:window-height="1020"
     inkscape:window-x="1930"
     inkscape:window-y="50"
     inkscape:window-maximized="0" />
  <metadata
     id="metadata3789">
    <rdf:RDF>
      <cc:Work
         rdf:about="">
        <dc:format>image/svg+xml</dc:format>
        <dc:type
           rdf:resource="http://purl.org/dc/dcmitype/StillImage" />
        <dc:title></dc:title>
      </cc:Work>
    </rdf:RDF>
  </metadata>
  <g
     inkscape:label="Layer 1"
     inkscape:groupmode="layer"
     id="layer1"
     transform="translate(0,-244)">
    <g
       transform="matrix(1.0629303,0,0,1.0629303,-192.2525,162.54405)"
       id="g4254">
      <g
         id="text4236"
         style="font-style:normal;font-weight:normal;font-size:58.74963379px;line-height:125%;font-family:Sans;letter-spacing:0px;word-spacing:0px;fill:#4d4d4d;fill-opacity:1;stroke:none;stroke-width:1px;stroke-linecap:butt;stroke-linejoin:miter;stroke-opacity:1">
        <path
           inkscape:connector-curvature="0"
           id="path4170"
           style="font-style:normal;font-variant:normal;font-weight:bold;font-stretch:normal;font-size:58.75px;line-height:125%;font-family:Arial;-inkscape-font-specification:'Arial, Bold';text-align:start;writing-mode:lr-tb;text-anchor:start;fill:#4d4d4d;fill-opacity:1"
           d="m 215.39935,122.6022 -3.58581,-10.32715 h -15.40467 l -3.58581,10.32715 h -8.46253 l 14.74488,-40.419308 h 9.98291 l 14.6875,40.419308 z m -11.30249,-34.194333 -0.17212,0.631104 q -0.28686,1.032715 -0.68847,2.352295 -0.40161,1.31958 -4.93408,14.515384 h 11.61804 l -3.98743,-11.618045 -1.23352,-3.901367 z" />
        <path
           inkscape:connector-curvature="0"
           id="path4172"
           style="font-style:normal;font-variant:normal;font-weight:bold;font-stretch:normal;font-size:58.75px;line-height:125%;font-family:Arial;-inkscape-font-specification:'Arial, Bold';text-align:start;writing-mode:lr-tb;text-anchor:start;fill:#4d4d4d;fill-opacity:1"
           d="M 226.26957,122.6022 V 98.849762 q 0,-2.553101 -0.0861,-4.245606 -0.0574,-1.721191 -0.14343,-3.040771 h 7.68799 q 0.0861,0.516357 0.22949,3.155518 0.14343,2.610473 0.14343,3.471069 h 0.11475 q 1.17614,-3.270264 2.09411,-4.589844 0.91797,-1.348266 2.18018,-1.97937 1.26221,-0.65979 3.15552,-0.65979 1.54907,0 2.49572,0.430298 v 6.741333 q -1.95068,-0.430298 -3.44238,-0.430298 -3.01208,0 -4.70459,2.438359 -1.66382,2.43835 -1.66382,7.229 v 15.23254 h -8.06091 z" />
        <path
           inkscape:connector-curvature="0"
           id="path4174"
           style="font-style:normal;font-variant:normal;font-weight:bold;font-stretch:normal;font-size:58.75px;line-height:125%;font-family:Arial;-inkscape-font-specification:'Arial, Bold';text-align:start;writing-mode:lr-tb;text-anchor:start;fill:#4d4d4d;fill-opacity:1"
           d="m 260.9796,123.17593 q -7.05688,0 -10.90087,-4.18823 -3.844,-4.21692 -3.844,-11.73279 0,-7.687985 3.87268,-11.962277 3.87268,-4.302978 10.98694,-4.302978 5.47913,0 9.06494,2.753906 3.58582,2.753906 4.50379,7.601929 l -8.11829,0.40161 q -0.34424,-2.380981 -1.72119,-3.78662 -1.37695,-1.434326 -3.90137,-1.434326 -6.22497,0 -6.22497,10.413206 0,10.72876 6.33972,10.72876 2.29492,0 3.84399,-1.43432 1.54907,-1.46302 1.922,-4.33167 l 8.0896,0.37292 q -0.4303,3.18421 -2.29492,5.67994 -1.83594,2.49572 -4.84803,3.87268 -3.01208,1.34826 -6.77002,1.34826 z" />
        <path
           inkscape:connector-curvature="0"
           id="path4176"
           style="font-style:normal;font-variant:normal;font-weight:bold;font-stretch:normal;font-size:58.75px;line-height:125%;font-family:Arial;-inkscape-font-specification:'Arial, Bold';text-align:start;writing-mode:lr-tb;text-anchor:start;fill:#4d4d4d;fill-opacity:1"
           d="m 286.03564,97.759674 q 1.63513,-3.557129 4.10217,-5.163574 2.46704,-1.606445 5.88074,-1.606445 4.93408,0 7.57324,3.040771 2.63916,3.040772 2.63916,8.892824 v 19.67895 h -8.03223 v -17.38403 q 0,-8.175659 -5.5365,-8.175659 -2.92602,0 -4.73327,2.524414 -1.77857,2.495725 -1.77857,6.425785 v 16.60949 h -8.06091 V 80.031403 h 8.06091 v 11.618042 q 0,3.126831 -0.22949,6.110229 z" />
      </g>
      <g
         id="text4240"
         style="font-style:normal;font-weight:normal;font-size:58.74963379px;line-height:125%;font-family:Sans;letter-spacing:0px;word-spacing:0px;fill:#00a7ab;fill-opacity:1;stroke:none;stroke-width:1px;stroke-linecap:butt;stroke-linejoin:miter;stroke-opacity:1">
        <path
           inkscape:connector-curvature="0"
           id="path4179"
           style="font-style:normal;font-variant:normal;font-weight:bold;font-stretch:normal;font-size:58.75px;line-height:125%;font-family:Arial;-inkscape-font-specification:'Arial, Bold';text-align:start;writing-mode:lr-tb;text-anchor:start;fill:#00a7ab;fill-opacity:1"
           d="m 344.80331,110.95547 q 0,5.93812 -4.41772,9.09363 -4.38904,3.12683 -12.90894,3.12683 -7.77405,0 -12.19177,-2.7539 -4.41773,-2.75391 -5.67993,-8.34778 l 8.17566,-1.34827 q 0.83191,3.21289 3.24157,4.67591 2.40967,1.43432 6.68396,1.43432 8.86414,0 8.86414,-5.39306 0,-1.7212 -1.03272,-2.83997 -1.00402,-1.11877 -2.86865,-1.86462 -1.83593,-0.74585 -7.08557,-1.80726 -4.53247,-1.0614 -6.31103,-1.6925 -1.77857,-0.65979 -3.21289,-1.52039 -1.43433,-0.88928 -2.43836,-2.122798 -1.00403,-1.233521 -1.57776,-2.897339 -0.54504,-1.663819 -0.54504,-3.815308 0,-5.479126 4.10217,-8.376465 4.13086,-2.926025 11.99097,-2.926025 7.51587,0 11.2738,2.352295 3.78662,2.352295 4.87671,7.774048 l -8.20435,1.118774 q -0.6311,-2.610474 -2.58178,-3.930054 -1.922,-1.31958 -5.5365,-1.31958 -7.68799,0 -7.68799,4.819336 0,1.577759 0.80322,2.581787 0.83191,1.004029 2.43836,1.721192 1.60644,0.688476 6.51184,1.749878 5.82336,1.23352 8.31909,2.294919 2.52441,1.03272 3.98743,2.43836 1.46301,1.37695 2.23755,3.32763 0.77453,1.922 0.77453,4.44641 z" />
        <path
           inkscape:connector-curvature="0"
           id="path4181"
           style="font-style:normal;font-variant:normal;font-weight:bold;font-stretch:normal;font-size:58.75px;line-height:125%;font-family:Arial;-inkscape-font-specification:'Arial, Bold';text-align:start;writing-mode:lr-tb;text-anchor:start;fill:#00a7ab;fill-opacity:1"
           d="m 357.61086,123.11856 q -3.55713,0 -5.47913,-1.922 -1.922,-1.95068 -1.922,-5.88073 V 97.013824 h -3.93005 v -5.450439 h 4.33166 l 2.52442,-7.286377 h 5.04883 v 7.286377 h 5.88073 v 5.450439 h -5.88073 v 16.121826 q 0,2.26624 0.86059,3.35632 0.8606,1.06141 2.66785,1.06141 0.94665,0 2.69653,-0.40162 v 4.99146 q -2.9834,0.97534 -6.7987,0.97534 z" />
        <path
           inkscape:connector-curvature="0"
           id="path4183"
           style="font-style:normal;font-variant:normal;font-weight:bold;font-stretch:normal;font-size:58.75px;line-height:125%;font-family:Arial;-inkscape-font-specification:'Arial, Bold';text-align:start;writing-mode:lr-tb;text-anchor:start;fill:#00a7ab;fill-opacity:1"
           d="M 367.69318,122.6022 V 98.849762 q 0,-2.553101 -0.0861,-4.245606 -0.0574,-1.721191 -0.14343,-3.040771 h 7.68799 q 0.0861,0.516357 0.22949,3.155518 0.14343,2.610473 0.14343,3.471069 h 0.11475 q 1.17615,-3.270264 2.09411,-4.589844 0.91797,-1.348266 2.18018,-1.97937 1.26221,-0.65979 3.15552,-0.65979 1.54907,0 2.49573,0.430298 v 6.741333 q -1.95069,-0.430298 -3.44239,-0.430298 -3.01208,0 -4.70459,2.438359 -1.66382,2.43835 -1.66382,7.229 v 15.23254 h -8.06091 z" />
        <path
           inkscape:connector-curvature="0"
           id="path4185"
           style="font-style:normal;font-variant:normal;font-weight:bold;font-stretch:normal;font-size:58.75px;line-height:125%;font-family:Arial;-inkscape-font-specification:'Arial, Bold';text-align:start;writing-mode:lr-tb;text-anchor:start;fill:#00a7ab;fill-opacity:1"
           d="m 388.40353,85.969513 v -5.93811 h 8.06092 v 5.93811 z m 0,36.632687 V 91.563385 h 8.06092 V 122.6022 Z" />
        <path
           inkscape:connector-curvature="0"
           id="path4187"
           style="font-style:normal;font-variant:normal;font-weight:bold;font-stretch:normal;font-size:58.75px;line-height:125%;font-family:Arial;-inkscape-font-specification:'Arial, Bold';text-align:start;writing-mode:lr-tb;text-anchor:start;fill:#00a7ab;fill-opacity:1"
           d="m 421.33369,122.6022 -8.29041,-14.05639 -3.47107,2.40966 V 122.6022 H 401.5113 V 80.031403 h 8.06091 v 24.383547 l 11.073,-12.851565 h 8.66333 l -10.90088,12.105715 11.73279,18.9331 z" />
        <path
           inkscape:connector-curvature="0"
           id="path4189"
           style="font-style:normal;font-variant:normal;font-weight:bold;font-stretch:normal;font-size:58.75px;line-height:125%;font-family:Arial;-inkscape-font-specification:'Arial, Bold';text-align:start;writing-mode:lr-tb;text-anchor:start;fill:#00a7ab;fill-opacity:1"
           d="m 443.73589,123.17593 q -6.99952,0 -10.75745,-4.13086 -3.75793,-4.15954 -3.75793,-12.10571 0,-7.687987 3.8153,-11.818846 3.81531,-4.130859 10.81482,-4.130859 6.68396,0 10.2124,4.446411 3.52845,4.417724 3.52845,12.966304 v 0.2295 h -19.90845 q 0,4.53247 1.66382,6.85608 1.6925,2.29492 4.79065,2.29492 4.27429,0 5.39306,-3.70056 l 7.60193,0.65979 q -3.29895,8.43383 -13.3966,8.43383 z m 0,-27.108761 q -2.83997,0 -4.38904,1.97937 -1.52039,1.979371 -1.60645,5.536501 h 12.04834 q -0.22949,-3.757936 -1.80725,-5.62256 -1.57776,-1.893311 -4.2456,-1.893311 z" />
      </g>
    </g>
  </g>
</svg>
