<?xml version="1.0" encoding="UTF-8" standalone="no"?>
<!-- Created with Inkscape (http://www.inkscape.org/) -->

<svg
   xmlns:dc="http://purl.org/dc/elements/1.1/"
   xmlns:cc="http://creativecommons.org/ns#"
   xmlns:rdf="http://www.w3.org/1999/02/22-rdf-syntax-ns#"
   xmlns:svg="http://www.w3.org/2000/svg"
   xmlns="http://www.w3.org/2000/svg"
   xmlns:sodipodi="http://sodipodi.sourceforge.net/DTD/sodipodi-0.dtd"
   xmlns:inkscape="http://www.inkscape.org/namespaces/inkscape"
   width="210mm"
   height="297mm"
   viewBox="0 0 210 297"
   version="1.1"
   id="svg3734"
   inkscape:version="0.92.2 5c3e80d, 2017-08-06"
   sodipodi:docname="as_logo_fg.svg">
  <defs
     id="defs3728" />
  <sodipodi:namedview
     id="base"
     pagecolor="#ffffff"
     bordercolor="#666666"
     borderopacity="1.0"
     inkscape:pageopacity="0.0"
     inkscape:pageshadow="2"
     inkscape:zoom="0.35"
     inkscape:cx="400"
     inkscape:cy="560"
     inkscape:document-units="mm"
     inkscape:current-layer="layer1"
     showgrid="false"
     inkscape:window-width="1900"
     inkscape:window-height="1017"
     inkscape:window-x="1930"
     inkscape:window-y="53"
     inkscape:window-maximized="0" />
  <metadata
     id="metadata3731">
    <rdf:RDF>
      <cc:Work
         rdf:about="">
        <dc:format>image/svg+xml</dc:format>
        <dc:type
           rdf:resource="http://purl.org/dc/dcmitype/StillImage" />
        <dc:title></dc:title>
      </cc:Work>
    </rdf:RDF>
  </metadata>
  <g
     inkscape:label="Layer 1"
     inkscape:groupmode="layer"
     id="layer1">
    <path
       id="path4275-9"
       d="m 145.12578,132.55728 -19.05362,11.05317 a 31.031822,31.031822 0 0 0 -2.45509,-1.6112 31.031822,31.031822 0 0 0 -16.97993,-4.12335 31.031822,31.031822 0 0 0 -25.409824,15.48134 31.031822,31.031822 0 0 0 5.779604,38.22285 L 71.076603,205.19047 90.265359,194.2394 a 31.031822,31.031822 0 0 0 2.319951,1.5076 31.031822,31.031822 0 0 0 42.38976,-11.358 31.031822,31.031822 0 0 0 -5.32763,-37.80541 z m -37.02459,8.57255 a 27.743065,27.743065 0 0 1 14.80413,4.31856 l -33.760143,19.58518 17.265223,9.96902 -16.891327,14.43023 a 27.743065,27.743065 0 0 1 -9.161175,-20.5597 27.743065,27.743065 0 0 1 27.743292,-27.74329 z m 19.10017,7.6686 a 27.743065,27.743065 0 0 1 8.64312,20.07469 27.743065,27.743065 0 0 1 -27.74329,27.7433 27.743065,27.743065 0 0 1 -14.626942,-4.20895 l 36.518552,-20.84201 -17.052,-9.84439 z"
       style="opacity:1;fill:#00a7ab;fill-opacity:1;fill-rule:nonzero;stroke:none;stroke-width:3.92093968;stroke-miterlimit:4;stroke-dasharray:none;stroke-opacity:1"
       inkscape:connector-curvature="0" />
  </g>
</svg>
